# Blender v2.92.0 OBJ File: 'ball-yoomp-bw.blend'
# www.blender.org
mtllib ball-yoomp-bw.mtl
o Sphere.001
v 0.000000 0.707107 -0.707107
v 0.000000 0.382683 -0.923880
v 0.000000 -0.382684 -0.923880
v 0.000000 -0.923880 -0.382683
v 0.146447 0.923880 -0.353553
v 0.270598 0.707107 -0.653281
v 0.353553 0.382683 -0.853553
v 0.382683 -0.000000 -0.923880
v 0.353553 -0.382684 -0.853553
v 0.270598 -0.707107 -0.653281
v 0.146447 -0.923880 -0.353553
v 0.270598 0.923880 -0.270598
v 0.500000 0.707107 -0.500000
v 0.653281 0.382683 -0.653281
v 0.707107 -0.000000 -0.707107
v 0.653281 -0.382684 -0.653281
v 0.500000 -0.707107 -0.500000
v 0.270598 -0.923880 -0.270598
v 0.353553 0.923880 -0.146447
v 0.653281 0.707107 -0.270598
v 0.853553 0.382683 -0.353553
v 0.923879 -0.000000 -0.382683
v 0.853553 -0.382684 -0.353553
v 0.653281 -0.707107 -0.270598
v 0.353553 -0.923880 -0.146447
v 0.382683 0.923880 -0.000000
v 0.707107 0.707107 -0.000000
v 0.923879 0.382683 -0.000000
v 1.000000 -0.000000 -0.000000
v 0.923879 -0.382684 -0.000000
v 0.707107 -0.707107 -0.000000
v 0.382683 -0.923880 -0.000000
v 0.353553 0.923880 0.146446
v 0.653281 0.707107 0.270598
v 0.853553 0.382683 0.353553
v 0.923879 -0.000000 0.382683
v 0.853553 -0.382684 0.353553
v 0.653281 -0.707107 0.270598
v 0.353553 -0.923880 0.146446
v 0.270598 0.923880 0.270598
v 0.500000 0.707107 0.500000
v 0.653281 0.382683 0.653281
v 0.707106 -0.000000 0.707107
v 0.653281 -0.382684 0.653281
v 0.500000 -0.707107 0.500000
v 0.270598 -0.923880 0.270598
v 0.146446 0.923880 0.353553
v 0.270598 0.707107 0.653281
v 0.353553 0.382683 0.853553
v 0.382683 -0.000000 0.923879
v 0.353553 -0.382684 0.853553
v 0.270598 -0.707107 0.653281
v 0.146446 -0.923880 0.353553
v -0.000000 0.923880 0.382683
v -0.000000 0.707107 0.707106
v -0.000000 0.382683 0.923879
v -0.000000 -0.000000 1.000000
v -0.000000 -0.382684 0.923879
v -0.000000 -0.707107 0.707106
v -0.000000 -0.923880 0.382683
v -0.146447 0.923880 0.353553
v -0.270598 0.707107 0.653281
v -0.353554 0.382683 0.853553
v -0.382684 -0.000000 0.923879
v -0.353554 -0.382684 0.853553
v -0.270598 -0.707107 0.653281
v -0.146447 -0.923880 0.353553
v -0.270598 0.923880 0.270598
v -0.500000 0.707107 0.499999
v -0.653282 0.382683 0.653281
v -0.707107 -0.000000 0.707106
v -0.653282 -0.382684 0.653281
v -0.500000 -0.707107 0.499999
v -0.270598 -0.923880 0.270598
v -0.353553 0.923880 0.146446
v -0.653281 0.707107 0.270597
v -0.853553 0.382683 0.353553
v -0.923879 -0.000000 0.382683
v -0.853553 -0.382684 0.353553
v -0.653281 -0.707107 0.270597
v -0.353553 -0.923880 0.146446
v -0.382683 0.923880 -0.000000
v -0.707106 0.707107 -0.000000
v -0.923879 0.382683 -0.000001
v -1.000000 -0.000000 -0.000001
v -0.923879 -0.382684 -0.000001
v -0.707106 -0.707107 -0.000000
v -0.382683 -0.923880 -0.000000
v -0.353553 0.923880 -0.146447
v -0.653281 0.707107 -0.270598
v -0.853553 0.382683 -0.353554
v -0.923879 -0.000000 -0.382684
v -0.853553 -0.382684 -0.353554
v -0.653281 -0.707107 -0.270598
v -0.353553 -0.923880 -0.146447
v -0.270598 0.923880 -0.270598
v -0.499999 0.707107 -0.500000
v -0.653281 0.382683 -0.653282
v -0.707106 -0.000000 -0.707107
v -0.653281 -0.382684 -0.653282
v -0.499999 -0.707107 -0.500000
v -0.270598 -0.923880 -0.270598
v -0.146446 0.923880 -0.353553
v -0.270598 0.707107 -0.653281
v -0.353553 0.382683 -0.853553
v -0.382683 -0.000000 -0.923880
v -0.353553 -0.382684 -0.853553
v -0.270598 -0.707107 -0.653281
v -0.146446 -0.923880 -0.353553
v -0.000000 1.000000 -0.000000
v 0.000000 0.923880 -0.382683
v 0.000001 -0.000000 -1.000000
v 0.000000 -0.707107 -0.707106
v 0.000000 -1.000000 -0.000000
vt 0.750000 0.625000
vt 0.750000 0.750000
vt 0.687500 0.750000
vt 0.687500 0.625000
vt 0.750000 0.875000
vt 0.718750 1.000000
vt 0.687500 0.875000
vt 0.750000 0.500000
vt 0.687500 0.500000
vt 0.625000 0.625000
vt 0.625000 0.500000
vt 0.625000 0.875000
vt 0.625000 0.750000
vt 0.656250 1.000000
vt 0.562500 0.875000
vt 0.562500 0.750000
vt 0.562500 0.625000
vt 0.593750 1.000000
vt 0.562500 0.500000
vt 0.500000 0.750000
vt 0.500000 0.625000
vt 0.531250 1.000000
vt 0.500000 0.875000
vt 0.500000 0.500000
vt 0.468750 0.000000
vt 0.500000 0.125000
vt 0.437500 0.125000
vt 0.500000 0.250000
vt 0.500000 0.375000
vt 0.437500 0.375000
vt 0.437500 0.250000
vt 0.437500 0.500000
vt 0.375000 0.375000
vt 0.375000 0.250000
vt 0.375000 0.125000
vt 0.375000 0.500000
vt 0.406250 0.000000
vt 0.312500 0.250000
vt 0.312500 0.125000
vt 0.312500 0.500000
vt 0.312500 0.375000
vt 0.343750 0.000000
vt 0.250000 0.500000
vt 0.250000 0.375000
vt 0.281250 0.000000
vt 0.250000 0.125000
vt 0.250000 0.250000
vt 0.250000 0.625000
vt 0.187500 0.625000
vt 0.187500 0.500000
vt 0.250000 0.750000
vt 0.250000 0.875000
vt 0.187500 0.875000
vt 0.187500 0.750000
vt 0.218750 1.000000
vt 0.125000 0.625000
vt 0.125000 0.500000
vt 0.125000 0.875000
vt 0.125000 0.750000
vt 0.156250 1.000000
vt 0.062500 0.750000
vt 0.062500 0.625000
vt 0.093750 1.000000
vt 0.062500 0.875000
vt 0.062500 0.500000
vt 0.000000 0.750000
vt 0.000000 0.625000
vt 0.031250 1.000000
vt 0.000000 0.875000
vt 0.000000 0.500000
vt 0.968750 0.000000
vt 1.000000 0.125000
vt 0.937500 0.125000
vt 1.000000 0.250000
vt 1.000000 0.375000
vt 0.937500 0.375000
vt 0.937500 0.250000
vt 1.000000 0.500000
vt 0.937500 0.500000
vt 0.875000 0.250000
vt 0.875000 0.125000
vt 0.875000 0.500000
vt 0.875000 0.375000
vt 0.906250 0.000000
vt 0.812500 0.250000
vt 0.812500 0.125000
vt 0.812500 0.500000
vt 0.812500 0.375000
vt 0.843750 0.000000
vt 0.781250 0.000000
vt 0.750000 0.125000
vt 0.750000 0.375000
vt 0.750000 0.250000
vt 0.687500 0.375000
vt 0.718750 0.000000
vt 0.687500 0.125000
vt 0.687500 0.250000
vt 0.656250 0.000000
vt 0.625000 0.125000
vt 0.625000 0.375000
vt 0.625000 0.250000
vt 0.562500 0.250000
vt 0.562500 0.125000
vt 0.562500 0.375000
vt 0.593750 0.000000
vt 0.531250 0.000000
vt 0.468750 1.000000
vt 0.437500 0.875000
vt 0.437500 0.625000
vt 0.437500 0.750000
vt 0.375000 0.625000
vt 0.375000 0.875000
vt 0.375000 0.750000
vt 0.406250 1.000000
vt 0.312500 0.750000
vt 0.312500 0.625000
vt 0.343750 1.000000
vt 0.312500 0.875000
vt 0.281250 1.000000
vt 0.218750 0.000000
vt 0.187500 0.125000
vt 0.187500 0.375000
vt 0.187500 0.250000
vt 0.125000 0.250000
vt 0.125000 0.125000
vt 0.125000 0.375000
vt 0.156250 0.000000
vt 0.062500 0.250000
vt 0.062500 0.125000
vt 0.062500 0.375000
vt 0.093750 0.000000
vt 0.031250 0.000000
vt 0.000000 0.125000
vt 0.000000 0.375000
vt 0.000000 0.250000
vt 1.000000 0.625000
vt 0.937500 0.625000
vt 1.000000 0.750000
vt 1.000000 0.875000
vt 0.937500 0.875000
vt 0.937500 0.750000
vt 0.968750 1.000000
vt 0.875000 0.875000
vt 0.875000 0.750000
vt 0.875000 0.625000
vt 0.906250 1.000000
vt 0.812500 0.750000
vt 0.812500 0.625000
vt 0.843750 1.000000
vt 0.812500 0.875000
vt 0.781250 1.000000
vn 0.0000 0.3743 -0.9273
vn 0.0000 0.6952 -0.7188
vn 0.2751 0.6952 -0.6641
vn 0.3548 0.3743 -0.8567
vn 0.0000 0.9152 -0.4031
vn 0.0000 1.0000 0.0000
vn 0.1542 0.9152 -0.3724
vn 0.0000 0.0000 -1.0000
vn 0.3827 0.0000 -0.9239
vn 0.6557 0.3743 -0.6557
vn 0.7071 0.0000 -0.7071
vn 0.2850 0.9152 -0.2850
vn 0.5083 0.6952 -0.5083
vn 0.3724 0.9152 -0.1542
vn 0.6641 0.6952 -0.2751
vn 0.8567 0.3743 -0.3548
vn 0.9239 0.0000 -0.3827
vn 0.7188 0.6952 0.0000
vn 0.9273 0.3743 0.0000
vn 0.4031 0.9152 0.0000
vn 1.0000 0.0000 0.0000
vn 0.0000 -1.0000 0.0000
vn 0.4031 -0.9152 0.0000
vn 0.3724 -0.9152 0.1542
vn 0.7188 -0.6952 0.0000
vn 0.9273 -0.3743 0.0000
vn 0.8567 -0.3743 0.3548
vn 0.6641 -0.6952 0.2751
vn 0.9239 0.0000 0.3827
vn 0.6557 -0.3743 0.6557
vn 0.5083 -0.6952 0.5083
vn 0.2850 -0.9152 0.2850
vn 0.7071 0.0000 0.7071
vn 0.2751 -0.6952 0.6641
vn 0.1542 -0.9152 0.3724
vn 0.3827 0.0000 0.9239
vn 0.3548 -0.3743 0.8567
vn 0.0000 0.0000 1.0000
vn 0.0000 -0.3743 0.9273
vn 0.0000 -0.9152 0.4031
vn 0.0000 -0.6952 0.7188
vn 0.0000 0.3743 0.9273
vn -0.3548 0.3743 0.8567
vn -0.3827 0.0000 0.9239
vn 0.0000 0.6952 0.7188
vn 0.0000 0.9152 0.4031
vn -0.1542 0.9152 0.3724
vn -0.2751 0.6952 0.6641
vn -0.6557 0.3743 0.6557
vn -0.7071 0.0000 0.7071
vn -0.2850 0.9152 0.2850
vn -0.5083 0.6952 0.5083
vn -0.6641 0.6952 0.2751
vn -0.8567 0.3743 0.3548
vn -0.3724 0.9152 0.1542
vn -0.9239 0.0000 0.3827
vn -0.7188 0.6952 0.0000
vn -0.9273 0.3743 0.0000
vn -0.4031 0.9152 0.0000
vn -1.0000 0.0000 0.0000
vn -0.4031 -0.9152 0.0000
vn -0.3724 -0.9152 -0.1542
vn -0.7188 -0.6952 0.0000
vn -0.9273 -0.3743 0.0000
vn -0.8567 -0.3743 -0.3548
vn -0.6641 -0.6952 -0.2751
vn -0.9239 0.0000 -0.3827
vn -0.5083 -0.6952 -0.5083
vn -0.2850 -0.9152 -0.2850
vn -0.7071 0.0000 -0.7071
vn -0.6557 -0.3743 -0.6557
vn -0.2751 -0.6952 -0.6641
vn -0.1542 -0.9152 -0.3724
vn -0.3827 0.0000 -0.9239
vn -0.3548 -0.3743 -0.8567
vn 0.0000 -0.9152 -0.4031
vn 0.0000 -0.3743 -0.9273
vn 0.0000 -0.6952 -0.7188
vn 0.3548 -0.3743 -0.8567
vn 0.1542 -0.9152 -0.3724
vn 0.2751 -0.6952 -0.6641
vn 0.2850 -0.9152 -0.2850
vn 0.6557 -0.3743 -0.6557
vn 0.5083 -0.6952 -0.5083
vn 0.6641 -0.6952 -0.2751
vn 0.3724 -0.9152 -0.1542
vn 0.8567 -0.3743 -0.3548
vn 0.3724 0.9152 0.1542
vn 0.8567 0.3743 0.3548
vn 0.6641 0.6952 0.2751
vn 0.6557 0.3743 0.6557
vn 0.2850 0.9152 0.2850
vn 0.5083 0.6952 0.5083
vn 0.2751 0.6952 0.6641
vn 0.3548 0.3743 0.8567
vn 0.1542 0.9152 0.3724
vn -0.1542 -0.9152 0.3724
vn -0.3548 -0.3743 0.8567
vn -0.2751 -0.6952 0.6641
vn -0.5083 -0.6952 0.5083
vn -0.2850 -0.9152 0.2850
vn -0.6557 -0.3743 0.6557
vn -0.6641 -0.6952 0.2751
vn -0.3724 -0.9152 0.1542
vn -0.8567 -0.3743 0.3548
vn -0.8567 0.3743 -0.3548
vn -0.3724 0.9152 -0.1542
vn -0.6641 0.6952 -0.2751
vn -0.2850 0.9152 -0.2850
vn -0.5083 0.6952 -0.5083
vn -0.6557 0.3743 -0.6557
vn -0.2751 0.6952 -0.6641
vn -0.3548 0.3743 -0.8567
vn -0.1542 0.9152 -0.3724
usemtl Material.003
s 1
f 2/1/1 1/2/2 6/3/3 7/4/4
f 111/5/5 110/6/6 5/7/7
f 112/8/8 2/1/1 7/4/4 8/9/9
f 1/2/2 111/5/5 5/7/7 6/3/3
f 8/9/9 7/4/4 14/10/10 15/11/11
f 6/3/3 5/7/7 12/12/12 13/13/13
f 7/4/4 6/3/3 13/13/13 14/10/10
f 5/7/7 110/14/6 12/12/12
f 13/13/13 12/12/12 19/15/14 20/16/15
f 14/10/10 13/13/13 20/16/15 21/17/16
f 12/12/12 110/18/6 19/15/14
f 15/11/11 14/10/10 21/17/16 22/19/17
f 21/17/16 20/16/15 27/20/18 28/21/19
f 19/15/14 110/22/6 26/23/20
f 22/19/17 21/17/16 28/21/19 29/24/21
f 20/16/15 19/15/14 26/23/20 27/20/18
f 114/25/22 32/26/23 39/27/24
f 31/28/25 30/29/26 37/30/27 38/31/28
f 32/26/23 31/28/25 38/31/28 39/27/24
f 30/29/26 29/24/21 36/32/29 37/30/27
f 38/31/28 37/30/27 44/33/30 45/34/31
f 39/27/24 38/31/28 45/34/31 46/35/32
f 37/30/27 36/32/29 43/36/33 44/33/30
f 114/37/22 39/27/24 46/35/32
f 46/35/32 45/34/31 52/38/34 53/39/35
f 44/33/30 43/36/33 50/40/36 51/41/37
f 114/42/22 46/35/32 53/39/35
f 45/34/31 44/33/30 51/41/37 52/38/34
f 51/41/37 50/40/36 57/43/38 58/44/39
f 114/45/22 53/39/35 60/46/40
f 52/38/34 51/41/37 58/44/39 59/47/41
f 53/39/35 52/38/34 59/47/41 60/46/40
f 57/43/38 56/48/42 63/49/43 64/50/44
f 55/51/45 54/52/46 61/53/47 62/54/48
f 56/48/42 55/51/45 62/54/48 63/49/43
f 54/52/46 110/55/6 61/53/47
f 64/50/44 63/49/43 70/56/49 71/57/50
f 62/54/48 61/53/47 68/58/51 69/59/52
f 63/49/43 62/54/48 69/59/52 70/56/49
f 61/53/47 110/60/6 68/58/51
f 70/56/49 69/59/52 76/61/53 77/62/54
f 68/58/51 110/63/6 75/64/55
f 71/57/50 70/56/49 77/62/54 78/65/56
f 69/59/52 68/58/51 75/64/55 76/61/53
f 77/62/54 76/61/53 83/66/57 84/67/58
f 75/64/55 110/68/6 82/69/59
f 78/65/56 77/62/54 84/67/58 85/70/60
f 76/61/53 75/64/55 82/69/59 83/66/57
f 114/71/22 88/72/61 95/73/62
f 87/74/63 86/75/64 93/76/65 94/77/66
f 88/72/61 87/74/63 94/77/66 95/73/62
f 86/75/64 85/78/60 92/79/67 93/76/65
f 95/73/62 94/77/66 101/80/68 102/81/69
f 93/76/65 92/79/67 99/82/70 100/83/71
f 114/84/22 95/73/62 102/81/69
f 94/77/66 93/76/65 100/83/71 101/80/68
f 102/81/69 101/80/68 108/85/72 109/86/73
f 100/83/71 99/82/70 106/87/74 107/88/75
f 114/89/22 102/81/69 109/86/73
f 101/80/68 100/83/71 107/88/75 108/85/72
f 114/90/22 109/86/73 4/91/76
f 108/85/72 107/88/75 3/92/77 113/93/78
f 109/86/73 108/85/72 113/93/78 4/91/76
f 107/88/75 106/87/74 112/8/8 3/92/77
usemtl Material.005
f 3/92/77 112/8/8 8/9/9 9/94/79
f 114/95/22 4/91/76 11/96/80
f 113/93/78 3/92/77 9/94/79 10/97/81
f 4/91/76 113/93/78 10/97/81 11/96/80
f 114/98/22 11/96/80 18/99/82
f 10/97/81 9/94/79 16/100/83 17/101/84
f 11/96/80 10/97/81 17/101/84 18/99/82
f 9/94/79 8/9/9 15/11/11 16/100/83
f 18/99/82 17/101/84 24/102/85 25/103/86
f 16/100/83 15/11/11 22/19/17 23/104/87
f 114/105/22 18/99/82 25/103/86
f 17/101/84 16/100/83 23/104/87 24/102/85
f 25/103/86 24/102/85 31/28/25 32/26/23
f 23/104/87 22/19/17 29/24/21 30/29/26
f 114/106/22 25/103/86 32/26/23
f 24/102/85 23/104/87 30/29/26 31/28/25
f 26/23/20 110/107/6 33/108/88
f 29/24/21 28/21/19 35/109/89 36/32/29
f 27/20/18 26/23/20 33/108/88 34/110/90
f 28/21/19 27/20/18 34/110/90 35/109/89
f 36/32/29 35/109/89 42/111/91 43/36/33
f 34/110/90 33/108/88 40/112/92 41/113/93
f 35/109/89 34/110/90 41/113/93 42/111/91
f 33/108/88 110/114/6 40/112/92
f 42/111/91 41/113/93 48/115/94 49/116/95
f 40/112/92 110/117/6 47/118/96
f 43/36/33 42/111/91 49/116/95 50/40/36
f 41/113/93 40/112/92 47/118/96 48/115/94
f 49/116/95 48/115/94 55/51/45 56/48/42
f 47/118/96 110/119/6 54/52/46
f 50/40/36 49/116/95 56/48/42 57/43/38
f 48/115/94 47/118/96 54/52/46 55/51/45
f 114/120/22 60/46/40 67/121/97
f 59/47/41 58/44/39 65/122/98 66/123/99
f 60/46/40 59/47/41 66/123/99 67/121/97
f 58/44/39 57/43/38 64/50/44 65/122/98
f 67/121/97 66/123/99 73/124/100 74/125/101
f 65/122/98 64/50/44 71/57/50 72/126/102
f 114/127/22 67/121/97 74/125/101
f 66/123/99 65/122/98 72/126/102 73/124/100
f 74/125/101 73/124/100 80/128/103 81/129/104
f 72/126/102 71/57/50 78/65/56 79/130/105
f 114/131/22 74/125/101 81/129/104
f 73/124/100 72/126/102 79/130/105 80/128/103
f 114/132/22 81/129/104 88/133/61
f 80/128/103 79/130/105 86/134/64 87/135/63
f 81/129/104 80/128/103 87/135/63 88/133/61
f 79/130/105 78/65/56 85/70/60 86/134/64
f 85/78/60 84/136/58 91/137/106 92/79/67
f 83/138/57 82/139/59 89/140/107 90/141/108
f 84/136/58 83/138/57 90/141/108 91/137/106
f 82/139/59 110/142/6 89/140/107
f 90/141/108 89/140/107 96/143/109 97/144/110
f 91/137/106 90/141/108 97/144/110 98/145/111
f 89/140/107 110/146/6 96/143/109
f 92/79/67 91/137/106 98/145/111 99/82/70
f 98/145/111 97/144/110 104/147/112 105/148/113
f 96/143/109 110/149/6 103/150/114
f 99/82/70 98/145/111 105/148/113 106/87/74
f 97/144/110 96/143/109 103/150/114 104/147/112
f 103/150/114 110/151/6 111/5/5
f 106/87/74 105/148/113 2/1/1 112/8/8
f 104/147/112 103/150/114 111/5/5 1/2/2
f 105/148/113 104/147/112 1/2/2 2/1/1
