# Blender v2.92.0 OBJ File: 'ball-amiga-2.blend'
# www.blender.org
mtllib ball-amiga-2.mtl
o Sphere_Sphere.002
v 0.000000 0.707107 -0.707107
v 0.000000 0.382683 -0.923880
v 0.000000 -0.382684 -0.923880
v 0.000000 -0.923880 -0.382683
v 0.146447 0.923880 -0.353553
v 0.270598 0.707107 -0.653281
v 0.353553 0.382683 -0.853553
v 0.382683 -0.000000 -0.923880
v 0.353553 -0.382684 -0.853553
v 0.270598 -0.707107 -0.653281
v 0.146447 -0.923880 -0.353553
v 0.270598 0.923880 -0.270598
v 0.500000 0.707107 -0.500000
v 0.653281 0.382683 -0.653281
v 0.707107 -0.000000 -0.707107
v 0.653281 -0.382684 -0.653281
v 0.500000 -0.707107 -0.500000
v 0.270598 -0.923880 -0.270598
v 0.353553 0.923880 -0.146447
v 0.653281 0.707107 -0.270598
v 0.853553 0.382683 -0.353553
v 0.923879 -0.000000 -0.382683
v 0.853553 -0.382684 -0.353553
v 0.653281 -0.707107 -0.270598
v 0.353553 -0.923880 -0.146447
v 0.382683 0.923880 -0.000000
v 0.707107 0.707107 -0.000000
v 0.923879 0.382683 -0.000000
v 1.000000 -0.000000 -0.000000
v 0.923879 -0.382684 -0.000000
v 0.707107 -0.707107 -0.000000
v 0.382683 -0.923880 -0.000000
v 0.353553 0.923880 0.146446
v 0.653281 0.707107 0.270598
v 0.853553 0.382683 0.353553
v 0.923879 -0.000000 0.382683
v 0.853553 -0.382684 0.353553
v 0.653281 -0.707107 0.270598
v 0.353553 -0.923880 0.146446
v 0.270598 0.923880 0.270598
v 0.500000 0.707107 0.500000
v 0.653281 0.382683 0.653281
v 0.707106 -0.000000 0.707107
v 0.653281 -0.382684 0.653281
v 0.500000 -0.707107 0.500000
v 0.270598 -0.923880 0.270598
v 0.146446 0.923880 0.353553
v 0.270598 0.707107 0.653281
v 0.353553 0.382683 0.853553
v 0.382683 -0.000000 0.923879
v 0.353553 -0.382684 0.853553
v 0.270598 -0.707107 0.653281
v 0.146446 -0.923880 0.353553
v -0.000000 0.923880 0.382683
v -0.000000 0.707107 0.707106
v -0.000000 0.382683 0.923879
v -0.000000 -0.000000 1.000000
v -0.000000 -0.382684 0.923879
v -0.000000 -0.707107 0.707106
v -0.000000 -0.923880 0.382683
v -0.146447 0.923880 0.353553
v -0.270598 0.707107 0.653281
v -0.353554 0.382683 0.853553
v -0.382684 -0.000000 0.923879
v -0.353554 -0.382684 0.853553
v -0.270598 -0.707107 0.653281
v -0.146447 -0.923880 0.353553
v -0.270598 0.923880 0.270598
v -0.500000 0.707107 0.499999
v -0.653282 0.382683 0.653281
v -0.707107 -0.000000 0.707106
v -0.653282 -0.382684 0.653281
v -0.500000 -0.707107 0.499999
v -0.270598 -0.923880 0.270598
v -0.353553 0.923880 0.146446
v -0.653281 0.707107 0.270597
v -0.853553 0.382683 0.353553
v -0.923879 -0.000000 0.382683
v -0.853553 -0.382684 0.353553
v -0.653281 -0.707107 0.270597
v -0.353553 -0.923880 0.146446
v -0.382683 0.923880 -0.000000
v -0.707106 0.707107 -0.000000
v -0.923879 0.382683 -0.000001
v -1.000000 -0.000000 -0.000001
v -0.923879 -0.382684 -0.000001
v -0.707106 -0.707107 -0.000000
v -0.382683 -0.923880 -0.000000
v -0.353553 0.923880 -0.146447
v -0.653281 0.707107 -0.270598
v -0.853553 0.382683 -0.353554
v -0.923879 -0.000000 -0.382684
v -0.853553 -0.382684 -0.353554
v -0.653281 -0.707107 -0.270598
v -0.353553 -0.923880 -0.146447
v -0.270598 0.923880 -0.270598
v -0.499999 0.707107 -0.500000
v -0.653281 0.382683 -0.653282
v -0.707106 -0.000000 -0.707107
v -0.653281 -0.382684 -0.653282
v -0.499999 -0.707107 -0.500000
v -0.270598 -0.923880 -0.270598
v -0.146446 0.923880 -0.353553
v -0.270598 0.707107 -0.653281
v -0.353553 0.382683 -0.853553
v -0.382683 -0.000000 -0.923880
v -0.353553 -0.382684 -0.853553
v -0.270598 -0.707107 -0.653281
v -0.146446 -0.923880 -0.353553
v -0.000000 1.000000 -0.000000
v 0.000000 0.923880 -0.382683
v 0.000001 -0.000000 -1.000000
v 0.000000 -0.707107 -0.707106
v 0.000000 -1.000000 -0.000000
vt 0.750000 0.875000
vt 0.718750 1.000000
vt 0.687500 0.875000
vt 0.750000 0.250000
vt 0.750000 0.375000
vt 0.687500 0.375000
vt 0.687500 0.250000
vt 0.750000 0.750000
vt 0.687500 0.750000
vt 0.750000 0.500000
vt 0.687500 0.500000
vt 0.687500 0.625000
vt 0.625000 0.625000
vt 0.625000 0.500000
vt 0.687500 0.125000
vt 0.625000 0.250000
vt 0.625000 0.125000
vt 0.625000 0.750000
vt 0.656250 0.000000
vt 0.562500 0.250000
vt 0.562500 0.125000
vt 0.562500 0.750000
vt 0.562500 0.625000
vt 0.593750 0.000000
vt 0.562500 0.500000
vt 0.562500 0.875000
vt 0.531250 1.000000
vt 0.500000 0.875000
vt 0.562500 0.375000
vt 0.500000 0.375000
vt 0.500000 0.250000
vt 0.500000 0.750000
vt 0.500000 0.500000
vt 0.437500 0.375000
vt 0.437500 0.250000
vt 0.437500 0.875000
vt 0.437500 0.750000
vt 0.437500 0.500000
vt 0.468750 1.000000
vt 0.437500 0.125000
vt 0.375000 0.250000
vt 0.375000 0.125000
vt 0.437500 0.625000
vt 0.375000 0.750000
vt 0.375000 0.625000
vt 0.406250 0.000000
vt 0.375000 0.500000
vt 0.312500 0.250000
vt 0.312500 0.125000
vt 0.312500 0.750000
vt 0.312500 0.625000
vt 0.343750 0.000000
vt 0.312500 0.500000
vt 0.312500 0.875000
vt 0.281250 1.000000
vt 0.250000 0.875000
vt 0.312500 0.375000
vt 0.250000 0.375000
vt 0.250000 0.250000
vt 0.250000 0.750000
vt 0.250000 0.500000
vt 0.187500 0.375000
vt 0.187500 0.250000
vt 0.187500 0.875000
vt 0.187500 0.750000
vt 0.187500 0.500000
vt 0.218750 1.000000
vt 0.187500 0.125000
vt 0.125000 0.250000
vt 0.125000 0.125000
vt 0.187500 0.625000
vt 0.125000 0.750000
vt 0.125000 0.625000
vt 0.156250 0.000000
vt 0.125000 0.500000
vt 0.062500 0.750000
vt 0.062500 0.625000
vt 0.093750 0.000000
vt 0.062500 0.125000
vt 0.062500 0.500000
vt 0.062500 0.250000
vt 0.062500 0.375000
vt 0.000000 0.375000
vt 0.000000 0.250000
vt 0.062500 0.875000
vt 0.000000 0.875000
vt 0.000000 0.750000
vt 0.000000 0.500000
vt 0.031250 1.000000
vt 1.000000 0.750000
vt 1.000000 0.875000
vt 0.937500 0.875000
vt 0.937500 0.750000
vt 1.000000 0.375000
vt 1.000000 0.500000
vt 0.937500 0.500000
vt 0.937500 0.375000
vt 0.968750 1.000000
vt 1.000000 0.250000
vt 0.937500 0.250000
vt 0.937500 0.125000
vt 0.875000 0.250000
vt 0.875000 0.125000
vt 0.937500 0.625000
vt 0.875000 0.750000
vt 0.875000 0.625000
vt 0.906250 0.000000
vt 0.875000 0.500000
vt 0.812500 0.750000
vt 0.812500 0.625000
vt 0.843750 0.000000
vt 0.812500 0.125000
vt 0.812500 0.500000
vt 0.812500 0.250000
vt 0.812500 0.375000
vt 0.812500 0.875000
vt 0.781250 1.000000
vt 0.718750 0.000000
vt 0.750000 0.125000
vt 0.750000 0.625000
vt 0.625000 0.875000
vt 0.625000 0.375000
vt 0.656250 1.000000
vt 0.593750 1.000000
vt 0.500000 0.625000
vt 0.531250 0.000000
vt 0.500000 0.125000
vt 0.468750 0.000000
vt 0.375000 0.875000
vt 0.375000 0.375000
vt 0.406250 1.000000
vt 0.343750 1.000000
vt 0.281250 0.000000
vt 0.250000 0.125000
vt 0.250000 0.625000
vt 0.218750 0.000000
vt 0.125000 0.375000
vt 0.156250 1.000000
vt 0.125000 0.875000
vt 0.093750 1.000000
vt 0.031250 0.000000
vt 0.000000 0.125000
vt 0.000000 0.625000
vt 1.000000 0.625000
vt 1.000000 0.125000
vt 0.968750 0.000000
vt 0.875000 0.375000
vt 0.906250 1.000000
vt 0.875000 0.875000
vt 0.843750 1.000000
vt 0.781250 0.000000
vn 0.0388 0.9800 -0.1949
vn 0.1632 -0.5481 -0.8203
vn 0.1098 0.8264 -0.5522
vn 0.1915 -0.1915 -0.9626
vn 0.5453 0.1915 -0.8161
vn 0.3128 -0.8264 -0.4681
vn 0.4647 0.5481 -0.6954
vn 0.1104 -0.9800 -0.1653
vn 0.4681 -0.8264 -0.3128
vn 0.6954 0.5481 -0.4647
vn 0.1653 -0.9800 -0.1104
vn 0.8161 0.1915 -0.5453
vn 0.1949 0.9800 -0.0388
vn 0.8203 -0.5481 -0.1632
vn 0.5522 0.8264 -0.1098
vn 0.9626 -0.1915 -0.1915
vn 0.8203 -0.5481 0.1632
vn 0.5522 0.8264 0.1098
vn 0.9626 -0.1915 0.1915
vn 0.1949 0.9800 0.0388
vn 0.4681 -0.8264 0.3128
vn 0.6954 0.5481 0.4647
vn 0.1653 -0.9800 0.1104
vn 0.8161 0.1915 0.5453
vn 0.3128 -0.8264 0.4681
vn 0.4647 0.5481 0.6954
vn 0.1104 -0.9800 0.1653
vn 0.5453 0.1915 0.8161
vn 0.0388 0.9800 0.1949
vn 0.1632 -0.5481 0.8203
vn 0.1098 0.8264 0.5522
vn 0.1915 -0.1915 0.9626
vn -0.1632 -0.5481 0.8203
vn -0.1098 0.8264 0.5522
vn -0.1915 -0.1915 0.9626
vn -0.0388 0.9800 0.1949
vn -0.3128 -0.8264 0.4681
vn -0.4647 0.5481 0.6954
vn -0.1104 -0.9800 0.1653
vn -0.5453 0.1915 0.8161
vn -0.6954 0.5481 0.4647
vn -0.1653 -0.9800 0.1104
vn -0.8161 0.1915 0.5453
vn -0.4681 -0.8264 0.3128
vn -0.8203 -0.5481 0.1632
vn -0.5522 0.8264 0.1098
vn -0.9626 -0.1915 0.1915
vn -0.1949 0.9800 0.0388
vn -0.5522 0.8264 -0.1098
vn -0.9626 -0.1915 -0.1915
vn -0.1949 0.9800 -0.0388
vn -0.8203 -0.5481 -0.1632
vn -0.4681 -0.8264 -0.3128
vn -0.6954 0.5481 -0.4647
vn -0.1653 -0.9800 -0.1104
vn -0.8161 0.1915 -0.5453
vn -0.4647 0.5481 -0.6954
vn -0.1104 -0.9800 -0.1653
vn -0.5453 0.1915 -0.8161
vn -0.3128 -0.8264 -0.4681
vn -0.1632 -0.5481 -0.8203
vn -0.1098 0.8264 -0.5522
vn -0.1915 -0.1915 -0.9626
vn -0.0388 0.9800 -0.1949
vn 0.0388 -0.9800 -0.1949
vn 0.1915 0.1915 -0.9626
vn 0.1098 -0.8264 -0.5522
vn 0.1632 0.5481 -0.8203
vn 0.3128 0.8264 -0.4681
vn 0.5453 -0.1915 -0.8161
vn 0.1104 0.9800 -0.1653
vn 0.4647 -0.5481 -0.6954
vn 0.8161 -0.1915 -0.5453
vn 0.1653 0.9800 -0.1104
vn 0.6954 -0.5481 -0.4647
vn 0.4681 0.8264 -0.3128
vn 0.8203 0.5481 -0.1632
vn 0.1949 -0.9800 -0.0388
vn 0.9626 0.1915 -0.1915
vn 0.5522 -0.8264 -0.1098
vn 0.1949 -0.9800 0.0388
vn 0.9626 0.1915 0.1915
vn 0.5522 -0.8264 0.1098
vn 0.8203 0.5481 0.1632
vn 0.4681 0.8264 0.3128
vn 0.8161 -0.1915 0.5453
vn 0.1653 0.9800 0.1104
vn 0.6954 -0.5481 0.4647
vn 0.5453 -0.1915 0.8161
vn 0.1104 0.9800 0.1653
vn 0.4647 -0.5481 0.6954
vn 0.3128 0.8264 0.4681
vn 0.0388 -0.9800 0.1949
vn 0.1915 0.1915 0.9626
vn 0.1098 -0.8264 0.5522
vn 0.1632 0.5481 0.8203
vn -0.1915 0.1915 0.9626
vn -0.1098 -0.8264 0.5522
vn -0.1632 0.5481 0.8203
vn -0.0388 -0.9800 0.1949
vn -0.5453 -0.1915 0.8161
vn -0.1104 0.9800 0.1653
vn -0.4647 -0.5481 0.6954
vn -0.3128 0.8264 0.4681
vn -0.8161 -0.1915 0.5453
vn -0.1653 0.9800 0.1104
vn -0.6954 -0.5481 0.4647
vn -0.4681 0.8264 0.3128
vn -0.1949 -0.9800 0.0388
vn -0.9626 0.1915 0.1915
vn -0.5522 -0.8264 0.1098
vn -0.8203 0.5481 0.1632
vn -0.9626 0.1915 -0.1915
vn -0.5522 -0.8264 -0.1098
vn -0.8203 0.5481 -0.1632
vn -0.1949 -0.9800 -0.0388
vn -0.8161 -0.1915 -0.5453
vn -0.1653 0.9800 -0.1104
vn -0.6954 -0.5481 -0.4647
vn -0.4681 0.8264 -0.3128
vn -0.1104 0.9800 -0.1653
vn -0.4647 -0.5481 -0.6954
vn -0.3128 0.8264 -0.4681
vn -0.5453 -0.1915 -0.8161
vn -0.0388 -0.9800 -0.1949
vn -0.1915 0.1915 -0.9626
vn -0.1098 -0.8264 -0.5522
vn -0.1632 0.5481 -0.8203
usemtl Material.009
s off
f 111/1/1 110/2/1 5/3/1
f 113/4/2 3/5/2 9/6/2 10/7/2
f 1/8/3 111/1/3 5/3/3 6/9/3
f 3/5/4 112/10/4 8/11/4 9/6/4
f 8/11/5 7/12/5 14/13/5 15/14/5
f 11/15/6 10/7/6 17/16/6 18/17/6
f 7/12/7 6/9/7 13/18/7 14/13/7
f 114/19/8 11/15/8 18/17/8
f 18/17/9 17/16/9 24/20/9 25/21/9
f 14/13/10 13/18/10 20/22/10 21/23/10
f 114/24/11 18/17/11 25/21/11
f 15/14/12 14/13/12 21/23/12 22/25/12
f 19/26/13 110/27/13 26/28/13
f 24/20/14 23/29/14 30/30/14 31/31/14
f 20/22/15 19/26/15 26/28/15 27/32/15
f 23/29/16 22/25/16 29/33/16 30/30/16
f 31/31/17 30/30/17 37/34/17 38/35/17
f 27/32/18 26/28/18 33/36/18 34/37/18
f 30/30/19 29/33/19 36/38/19 37/34/19
f 26/28/20 110/39/20 33/36/20
f 39/40/21 38/35/21 45/41/21 46/42/21
f 35/43/22 34/37/22 41/44/22 42/45/22
f 114/46/23 39/40/23 46/42/23
f 36/38/24 35/43/24 42/45/24 43/47/24
f 46/42/25 45/41/25 52/48/25 53/49/25
f 42/45/26 41/44/26 48/50/26 49/51/26
f 114/52/27 46/42/27 53/49/27
f 43/47/28 42/45/28 49/51/28 50/53/28
f 47/54/29 110/55/29 54/56/29
f 52/48/30 51/57/30 58/58/30 59/59/30
f 48/50/31 47/54/31 54/56/31 55/60/31
f 51/57/32 50/53/32 57/61/32 58/58/32
f 59/59/33 58/58/33 65/62/33 66/63/33
f 55/60/34 54/56/34 61/64/34 62/65/34
f 58/58/35 57/61/35 64/66/35 65/62/35
f 54/56/36 110/67/36 61/64/36
f 67/68/37 66/63/37 73/69/37 74/70/37
f 63/71/38 62/65/38 69/72/38 70/73/38
f 114/74/39 67/68/39 74/70/39
f 64/66/40 63/71/40 70/73/40 71/75/40
f 70/73/41 69/72/41 76/76/41 77/77/41
f 114/78/42 74/70/42 81/79/42
f 71/75/43 70/73/43 77/77/43 78/80/43
f 74/70/44 73/69/44 80/81/44 81/79/44
f 80/81/45 79/82/45 86/83/45 87/84/45
f 76/76/46 75/85/46 82/86/46 83/87/46
f 79/82/47 78/80/47 85/88/47 86/83/47
f 75/85/48 110/89/48 82/86/48
f 83/90/49 82/91/49 89/92/49 90/93/49
f 86/94/50 85/95/50 92/96/50 93/97/50
f 82/91/51 110/98/51 89/92/51
f 87/99/52 86/94/52 93/97/52 94/100/52
f 95/101/53 94/100/53 101/102/53 102/103/53
f 91/104/54 90/93/54 97/105/54 98/106/54
f 114/107/55 95/101/55 102/103/55
f 92/96/56 91/104/56 98/106/56 99/108/56
f 98/106/57 97/105/57 104/109/57 105/110/57
f 114/111/58 102/103/58 109/112/58
f 99/108/59 98/106/59 105/110/59 106/113/59
f 102/103/60 101/102/60 108/114/60 109/112/60
f 108/114/61 107/115/61 3/5/61 113/4/61
f 104/109/62 103/116/62 111/1/62 1/8/62
f 107/115/63 106/113/63 112/10/63 3/5/63
f 103/116/64 110/117/64 111/1/64
usemtl Material.010
f 114/118/65 4/119/65 11/15/65
f 112/10/66 2/120/66 7/12/66 8/11/66
f 4/119/67 113/4/67 10/7/67 11/15/67
f 2/120/68 1/8/68 6/9/68 7/12/68
f 6/9/69 5/3/69 12/121/69 13/18/69
f 9/6/70 8/11/70 15/14/70 16/122/70
f 5/3/71 110/123/71 12/121/71
f 10/7/72 9/6/72 16/122/72 17/16/72
f 16/122/73 15/14/73 22/25/73 23/29/73
f 12/121/74 110/124/74 19/26/74
f 17/16/75 16/122/75 23/29/75 24/20/75
f 13/18/76 12/121/76 19/26/76 20/22/76
f 21/23/77 20/22/77 27/32/77 28/125/77
f 114/126/78 25/21/78 32/127/78
f 22/25/79 21/23/79 28/125/79 29/33/79
f 25/21/80 24/20/80 31/31/80 32/127/80
f 114/128/81 32/127/81 39/40/81
f 29/33/82 28/125/82 35/43/82 36/38/82
f 32/127/83 31/31/83 38/35/83 39/40/83
f 28/125/84 27/32/84 34/37/84 35/43/84
f 34/37/85 33/36/85 40/129/85 41/44/85
f 37/34/86 36/38/86 43/47/86 44/130/86
f 33/36/87 110/131/87 40/129/87
f 38/35/88 37/34/88 44/130/88 45/41/88
f 44/130/89 43/47/89 50/53/89 51/57/89
f 40/129/90 110/132/90 47/54/90
f 45/41/91 44/130/91 51/57/91 52/48/91
f 41/44/92 40/129/92 47/54/92 48/50/92
f 114/133/93 53/49/93 60/134/93
f 50/53/94 49/51/94 56/135/94 57/61/94
f 53/49/95 52/48/95 59/59/95 60/134/95
f 49/51/96 48/50/96 55/60/96 56/135/96
f 57/61/97 56/135/97 63/71/97 64/66/97
f 60/134/98 59/59/98 66/63/98 67/68/98
f 56/135/99 55/60/99 62/65/99 63/71/99
f 114/136/100 60/134/100 67/68/100
f 65/62/101 64/66/101 71/75/101 72/137/101
f 61/64/102 110/138/102 68/139/102
f 66/63/103 65/62/103 72/137/103 73/69/103
f 62/65/104 61/64/104 68/139/104 69/72/104
f 72/137/105 71/75/105 78/80/105 79/82/105
f 68/139/106 110/140/106 75/85/106
f 73/69/107 72/137/107 79/82/107 80/81/107
f 69/72/108 68/139/108 75/85/108 76/76/108
f 114/141/109 81/79/109 88/142/109
f 78/80/110 77/77/110 84/143/110 85/88/110
f 81/79/111 80/81/111 87/84/111 88/142/111
f 77/77/112 76/76/112 83/87/112 84/143/112
f 85/95/113 84/144/113 91/104/113 92/96/113
f 88/145/114 87/99/114 94/100/114 95/101/114
f 84/144/115 83/90/115 90/93/115 91/104/115
f 114/146/116 88/145/116 95/101/116
f 93/97/117 92/96/117 99/108/117 100/147/117
f 89/92/118 110/148/118 96/149/118
f 94/100/119 93/97/119 100/147/119 101/102/119
f 90/93/120 89/92/120 96/149/120 97/105/120
f 96/149/121 110/150/121 103/116/121
f 101/102/122 100/147/122 107/115/122 108/114/122
f 97/105/123 96/149/123 103/116/123 104/109/123
f 100/147/124 99/108/124 106/113/124 107/115/124
f 114/151/125 109/112/125 4/119/125
f 106/113/126 105/110/126 2/120/126 112/10/126
f 109/112/127 108/114/127 113/4/127 4/119/127
f 105/110/128 104/109/128 1/8/128 2/120/128
